# xmcd
#
# Track frame offsets:
#   150
#   17940
#   26646
#   39828
#   60097
#   81114
#   98099
#   113543
#   132601
#   149715
#   164442
#   180238
#   197505
#   213252
#   230579
#   246417
#   261133
#   281298
#   296030
#   315242
#
# Disc length: 4477 seconds
#
# Revision: 0
# Processed by: cddbd v1.5.2PL0 Copyright (c) Steve Scherf et al.
# Submitted via: GXTranscoder 2.0.1939
#
DISCID=13117b14
DTITLE=Gemischt - Weihnachts CD
DYEAR=1900
DGENRE=Alternative
TTITLE0=Tom Waits - Silent Night
TTITLE1=Jimi Hendrix - Drummer Boy ...
TTITLE2=Jona Lewie - Stop the Cavallery
TTITLE3=Bruce Springsteen - Santa Claus coming to town
TTITLE4=Wizzard - I wish it could be Christmas everyday
TTITLE5=Garry Glitter - Another Rock and Roll Christmas
TTITLE6=Slade - Merry Xmas Everybody
TTITLE7=Tom Petty - Christmas all over again
TTITLE8=XTC - Thanks for Christmas
TTITLE9=Emerson , Lake and Palmer - I believe in Father Chri
TTITLE10=Bob Seger - Little Drummer Boy
TTITLE11=Queen - A Winter's Tale
TTITLE12=Eurythmics - Winter Wonderland
TTITLE13=Band Aid - Do they know it's Christmas
TTITLE14=John Lennon - Happy Xmas ( War is over )
TTITLE15=Smashing Pumpkins - Christmastime
TTITLE16=The Pouges - Fairytale of New York
TTITLE17=The Vandals - Christmastime for my Penis
TTITLE18=Queen - Thank God it's Christmas
TTITLE19=Stevie Nicks - Silent Night
EXTD=
EXTT0=
EXTT1=
EXTT2=
EXTT3=
EXTT4=
EXTT5=
EXTT6=
EXTT7=
EXTT8=
EXTT9=
EXTT10=
EXTT11=
EXTT12=
EXTT13=
EXTT14=
EXTT15=
EXTT16=
EXTT17=
EXTT18=
EXTT19=
PLAYORDER=
